<?xml version="1.0" standalone="no"?>
<svg xmlns="http://www.w3.org/2000/svg" viewBox="0 0 97.781 112.907" width="97.781" height="112.907"><polygon fill="#000000" points="97.781,28.22675 97.781,84.68025 48.8905,112.907 0,84.68025 0,28.22675 48.8905,0"></polygon><path fill="white" fill-rule="nonzero" d="M0 19.91L0 18.18L1.48 17.98L8.44 0L10.75 0L17.58 17.98L19.04 18.18L19.04 19.91L13.33 19.91L13.33 18.18L14.83 17.92L13.52 14.26L5.55 14.26L4.20 17.92L5.70 18.18L5.70 19.91L0 19.91ZM9.53 3.46L6.38 12.00L12.70 12.00L9.61 3.46L9.53 3.46Z" transform="translate(39.369, 23.5)"></path><g fill="white" color="white" transform="translate(39.6905 51.40625) scale(0.4)"><svg width="46.0" height="100.0" x="0.0" y="0.0" viewBox="0 0 46 100"><path d="M0,2.486c0,0,0-1.243,1.243-1.243c2.78,0,5.569,1.243,7.46,1.243C11.189,2.486,14.919,0,18.648,0  C27.352,0,32.324,0,46,16.162h-3.729C31.081,7.459,28.486,3.567,26,16H14c0,0-1-10-9-6c-0.877,0.438-1.271,1.189-3.757,1.189  C0,11.189,0,9.946,0,9.946C0,8.703,0,2.486,0,2.486z"></path><path d="M26,22c0-1-1-2-2-2c-0.859,0-2.457,0-4,0s-3.141,0-4,0c-1,0-2,1-2,2c0,4.54,1,11.753,1,20c0,20.893-1,48.428-1,56  c0,1,1,2,2,2c0.743,0,2.317,0,4,0s3.257,0,4,0c1,0,2-1,2-2c0-7.572-1-35.107-1-56C25,33.753,26,26.54,26,22z"></path></svg></g></svg>